<svg version="1.0" xmlns="http://www.w3.org/2000/svg"
 width="400.000000pt" height="400.000000pt" viewBox="0 0 400.000000 400.000000"
 preserveAspectRatio="xMidYMid meet">
<g transform="translate(0.000000,400.000000) scale(0.100000,-0.100000)"
fill="#ff4785" stroke="none">
<path d="M3077 3873 l-68 -4 6 -107 c3 -59 7 -163 8 -232 2 -122 2 -125 -20
-128 -15 -2 -45 15 -92 53 l-70 56 -87 -66 c-48 -36 -94 -65 -103 -63 -14 3
-16 25 -13 188 1 102 5 204 8 228 l5 42 -33 0 c-18 0 -491 -29 -1050 -64
l-1018 -64 -44 -26 c-33 -19 -51 -40 -71 -81 -26 -53 -27 -58 -21 -177 4 -68
20 -485 36 -928 16 -443 32 -868 35 -945 3 -77 15 -373 25 -657 18 -474 21
-521 39 -557 28 -55 72 -88 133 -100 29 -6 368 -24 753 -41 385 -17 950 -42
1255 -56 420 -19 564 -23 592 -14 48 14 94 53 118 101 20 37 20 71 20 1766 0
1659 -1 1730 -19 1768 -36 78 -103 116 -198 113 -32 -1 -89 -3 -126 -5z m-922
-647 c210 -59 359 -200 431 -408 27 -80 54 -234 54 -314 0 -62 -8 -67 -143
-90 -114 -20 -355 -17 -380 5 -12 9 -17 29 -17 67 0 116 -36 211 -90 239 -39
20 -127 19 -170 -3 -50 -25 -74 -72 -74 -146 1 -116 65 -195 248 -306 326
-197 398 -249 483 -350 30 -36 72 -101 93 -145 60 -121 74 -188 75 -345 0
-151 -18 -231 -78 -345 -73 -136 -232 -255 -413 -307 -70 -20 -100 -23 -264
-22 -173 0 -191 2 -275 28 -127 39 -200 80 -280 161 -129 129 -195 319 -195
567 0 83 11 105 62 120 60 18 385 16 453 -3 l50 -14 8 -99 c4 -55 12 -116 17
-135 25 -91 76 -131 167 -131 101 0 155 56 156 163 1 133 -69 214 -319 372
-265 167 -373 257 -454 376 -82 120 -115 235 -114 404 1 209 57 358 184 486
101 101 197 152 350 185 89 18 353 12 435 -10z"/>
</g>
</svg>
